<svg width="20" height="21" viewBox="0 0 20 21" fill="none" xmlns="http://www.w3.org/2000/svg">
<path d="M10 20.5C15.5228 20.5 20 16.0228 20 10.5C20 4.97715 15.5228 0.5 10 0.5C4.47715 0.5 0 4.97715 0 10.5C0 16.0228 4.47715 20.5 10 20.5Z" fill="#262626"/>
<path d="M14.4566 11.0532C14.6281 10.8817 14.6281 10.6037 14.4566 10.4323L11.6627 7.63833C11.4913 7.46691 11.2133 7.46691 11.0418 7.63833C10.8704 7.80979 10.8704 8.08779 11.0418 8.2592L13.5253 10.7427L11.0418 13.2262C10.8704 13.3976 10.8704 13.6756 11.0418 13.8471C11.2133 14.0185 11.4913 14.0185 11.6627 13.8471L14.4566 11.0532ZM5.85352 11.1817H14.1462V10.3037H5.85352V11.1817Z" fill="#F8F8F8"/>
</svg>
