<svg width="168" height="52" viewBox="0 0 168 52" fill="none" xmlns="http://www.w3.org/2000/svg">
<g clip-path="url(#clip0_807_5205)">
<path d="M9.56289 52L19 0H0L9.43706 52H9.56289Z" fill="#D3D3D3"/>
<path d="M49.1087 7.2647C43.7661 2.42157 36.897 0 28.5014 0H23.6676L21.1234 13.7647H26.4662H27.3565C36.0065 13.7647 40.7132 18.0981 40.7132 26.0001C40.7132 33.9019 35.8794 38.2353 27.3565 38.2353H23.6676H16.544L14 52H28.3742C36.7697 52 43.6389 49.5784 48.9815 44.7353C54.3242 39.8922 56.9955 33.647 56.9955 26.0001C57.1227 18.353 54.5786 12.1078 49.1087 7.2647Z" fill="#D3D3D3"/>
<path d="M70 39V14H77.9221C81.8203 14 84.964 15.1598 87.3532 17.4795C89.7424 19.799 91 22.7629 91 26.4999C91 30.2371 89.7424 33.201 87.3532 35.5205C84.964 37.8402 81.8203 39 77.9221 39H70ZM72.5149 36.5516H77.5448C80.94 36.5516 83.5808 35.6495 85.467 33.8454C87.3532 32.0412 88.3593 29.5928 88.3593 26.4999C88.3593 23.4072 87.3532 20.9588 85.467 19.1546C83.5808 17.3505 80.94 16.4484 77.5448 16.4484H72.5149V36.5516Z" fill="#D3D3D3"/>
<path d="M100.59 34.6168C98.1538 32.2427 97 29.2439 97 25.6203C97 21.9966 98.1538 18.9978 100.59 16.6237C103.026 14.2496 105.974 13 109.692 13C112.385 13 114.692 13.6248 116.615 14.7494V17.3734C114.436 15.9989 112.128 15.3741 109.692 15.3741C106.872 15.3741 104.436 16.3738 102.513 18.248C100.59 20.1223 99.564 22.6214 99.564 25.4953C99.564 28.4942 100.462 30.8683 102.513 32.7426C104.436 34.6168 106.872 35.6165 109.692 35.6165C112.513 35.6165 114.949 34.8668 117 33.2424V35.8664C114.949 37.2409 112.513 37.9906 109.564 37.9906C105.974 38.1155 103.026 36.9909 100.59 34.6168Z" fill="#D3D3D3"/>
<path d="M125.821 36.3108C123.898 34.3984 123 31.7212 123 28.2788V14H125.565V28.2788C125.565 33.6334 128.385 36.8207 133 36.8207C137.614 36.8207 140.436 33.7609 140.436 28.2788V14H143V28.1514C143 31.5936 142.102 34.3984 140.18 36.1832C138.256 38.0956 135.949 38.9881 132.872 38.9881C130.051 39.1155 127.615 38.223 125.821 36.3108Z" fill="#D3D3D3"/>
<path d="M157.144 39V16.4484H149V14H168V16.4484H159.734V39H157.144Z" fill="#D3D3D3"/>
</g>
<defs>
<clipPath id="clip0_807_5205">
<rect width="168" height="52" fill="white"/>
</clipPath>
</defs>
</svg>
