<svg width="149" height="79" viewBox="0 0 149 79" fill="none" xmlns="http://www.w3.org/2000/svg">
<path d="M75.9056 0C63.4854 0 54.9247 12.1508 55.0005 22C58.3748 15.7788 61.36 13.2121 68.2964 9.99198C69.3246 9.51462 69.8449 9.17807 70.5704 7.97607L72.3199 4.29481C72.7573 3.33067 73.8944 4.03185 73.6319 4.73305L71.9695 8.5896C83.2215 6.13619 87.4316 4.20859 92 0H75.9056Z" fill="#262626"/>
<path d="M69 12C62.561 13.8443 53.8548 23.4168 55.1246 30.0914C56.2329 35.9184 62.9237 27.9836 69 12Z" fill="#262626"/>
<path d="M73.2572 10.0602C84.3879 7.64095 89.2179 4.99714 92.881 1C93.1427 9.61605 93.164 13.5244 90.8751 18.9427C87.6479 26.5817 78.9262 32 71.3383 32H60C61.26 30.6376 61.9187 29.8377 62.791 28.0028C64.188 25.0639 64.9732 23.9258 66.3668 22.6733C68.8224 20.7424 71.2671 20.0062 76.3968 18.9427C79.7235 18.337 81.4796 17.4833 84.5081 15.4785C85.1188 15.0344 84.2154 14.0908 83.8105 14.3238C81.0574 15.9081 79.5367 16.6651 76.2225 17.255C70.9107 18.2005 68.7528 18.8962 66.3668 20.4526C68.521 14.2923 70.7061 10.6146 73.2572 10.0602Z" fill="#262626"/>
<path d="M0 63H2.28113V54.7914H12.0189V54.4271H2.28113V46.3643H7.48113C9.49245 46.4129 11.8226 46.6314 13 46.9714L12.7547 46H0V63Z" fill="#262626"/>
<path d="M20 63H32.7679L33 62.0286C31.8857 62.3686 29.6804 62.5871 27.7768 62.6357H22.1589V54.7671H31.375V54.4029H22.1589V46.3643H27.3125C29.2161 46.4129 31.4214 46.6314 32.5357 46.9714L32.3036 46H20V63Z" fill="#262626"/>
<path d="M41 63H53.7593L54 62.0286C52.8444 62.3686 50.5574 62.5871 48.5833 62.6357H43.2389V46H41V63Z" fill="#262626"/>
<path d="M61 63H63V46H61V63Z" fill="#262626"/>
<path d="M72 63H74.1925V56.2729L75.6071 54.5L81.1238 63H84C82.9627 62.1014 82.3497 61.3243 81.5246 60.2071L76.8566 52.9457L82.3969 46H81.9489L74.1925 55.7143V46H72V63Z" fill="#262626"/>
<path d="M96.3876 63C100.352 63 104.072 61.6298 103.999 58.541C103.999 55.7076 101.307 54.6858 97.6358 53.5014C94.5276 52.5027 91.8111 51.3648 91.8111 49.2281C91.8111 47.7418 93.3284 46.2787 95.996 46.2787C99.1531 46.2787 101.38 47.3702 103.167 48.6243L102.922 47.3005C100.964 46.5109 99.3734 46 96.5834 46C91.8111 46 90 47.8115 90 50.2732C90 53.3156 93.3284 54.7322 96.51 55.7076C100.206 56.8224 101.894 57.8907 101.894 59.7719C101.894 61.4904 99.5692 62.7213 96.9505 62.7213C93.9158 62.7213 91.7866 61.6298 90 60.3757L90.2447 61.6995C92.1782 62.4891 93.7445 63 96.3876 63Z" fill="#262626"/>
<path d="M111 54.5C111 59.6093 114.595 63 119.988 63C125.405 63 129 59.6093 129 54.5C129 49.3907 125.405 46 119.988 46C114.595 46 111 49.3907 111 54.5ZM113.767 56.7295C112.419 53.0833 112.916 48.1134 117.032 46.6503C117.788 46.3948 118.498 46.2555 119.184 46.2555C122.519 46.2555 125.05 49.1352 126.209 52.2705C127.652 56.1721 126.753 61.0027 122.921 62.3729C122.188 62.6284 121.478 62.7678 120.792 62.7678C117.576 62.7678 114.997 60.0273 113.767 56.7295Z" fill="#262626"/>
<path d="M140.759 63H141.103L148 46H147.586L141.931 59.9592L136.414 46H134L140.759 63Z" fill="#262626"/>
<path d="M34 79H36.0047C37.805 79 39 77.8 39 76C39 74.2 37.805 73 36.0283 73H34V79ZM36.272 78.8714H34.7311V73.1286H35.7296C37.3176 73.1286 38.2767 74.9114 38.2767 76.4629C38.2846 77.7143 37.6635 78.8714 36.272 78.8714Z" fill="#262626"/>
<path d="M46 79H47V73H46V79Z" fill="#262626"/>
<path d="M56.2044 79H57L54.5796 73H54.4372L52.8208 77.0986C52.3015 78.4169 52.2513 78.6113 52 79H52.2178L53.0888 76.7775V76.8197H55.3501L56.2044 79ZM53.1307 76.6761L54.2111 73.9211L55.2915 76.6761H53.1307Z" fill="#262626"/>
<path d="M66.1556 79H66.3238L68.1739 73.2743L69.143 79H70L68.9668 73H68.0938L66.54 77.8L64.6259 73H63.7449L63.2723 77.74C63.1682 78.6229 63.1362 78.8114 63 79H63.3364L63.881 73.2657L66.1556 79Z" fill="#262626"/>
<path d="M75 76C75 77.8033 76.1984 79 77.9961 79C79.8016 79 81 77.8033 81 76C81 74.1967 79.8016 73 77.9961 73C76.1984 73 75 74.1967 75 76ZM75.9225 76.7869C75.4731 75.5 75.6386 73.7459 77.0105 73.2295C77.2628 73.1393 77.4993 73.0902 77.728 73.0902C78.8397 73.0902 79.6833 74.1066 80.0696 75.2131C80.5506 76.5902 80.251 78.2951 78.9737 78.7787C78.7293 78.8688 78.4928 78.918 78.2641 78.918C77.1919 78.918 76.3325 77.9508 75.9225 76.7869Z" fill="#262626"/>
<path d="M91.8521 79H92V73H91.8803V77.5514L88.7113 73H88.1056V77.08C88.0986 77.7829 88.0986 78.5886 88 79H88.2254V73.7457L91.8521 79Z" fill="#262626"/>
<path d="M99 79H101.005C102.805 79 104 77.8 104 76C104 74.2 102.805 73 101.028 73H99V79ZM101.272 78.8714H99.7311V73.1286H100.73C102.318 73.1286 103.277 74.9114 103.277 76.4629C103.285 77.7143 102.664 78.8714 101.272 78.8714Z" fill="#262626"/>
<path d="M112.281 79C113.697 79 115.026 78.5164 115 77.4262C115 76.4262 114.038 76.0656 112.727 75.6475C111.617 75.2951 110.647 74.8934 110.647 74.1393C110.647 73.6148 111.189 73.0984 112.141 73.0984C113.269 73.0984 114.064 73.4836 114.702 73.9262L114.615 73.459C113.916 73.1803 113.348 73 112.351 73C110.647 73 110 73.6393 110 74.5082C110 75.582 111.189 76.082 112.325 76.4262C113.645 76.8197 114.248 77.1967 114.248 77.8607C114.248 78.4672 113.418 78.9016 112.482 78.9016C111.399 78.9016 110.638 78.5164 110 78.0738L110.087 78.541C110.778 78.8197 111.337 79 112.281 79Z" fill="#262626"/>
</svg>
