<svg width="200" height="200" viewBox="0 0 200 200" fill="none" xmlns="http://www.w3.org/2000/svg">
<circle cx="100" cy="100" r="100" fill="#262626"/>
<path d="M65.8375 108.565L67.4831 107.836L72.5894 119.355L70.9439 120.084L65.8375 108.565ZM64.3287 123.017L62.6831 123.746L57.5768 112.227L59.2224 111.498L64.3287 123.017ZM68.816 114.885L61.8882 117.956L61.2535 116.524L68.1813 113.453L68.816 114.885ZM81.2667 115.508L80.4496 113.665L80.2142 113.356L78.8209 110.213C78.5242 109.544 78.0982 109.116 77.5428 108.929C76.9935 108.726 76.3294 108.797 75.5505 109.143C75.0348 109.371 74.5691 109.683 74.1533 110.077C73.7325 110.46 73.4154 110.87 73.2017 111.306L72.0183 110.413C72.3076 109.852 72.7235 109.339 73.2662 108.875C73.8149 108.396 74.4349 108.003 75.126 107.697C76.3218 107.166 77.3722 107.049 78.2772 107.343C79.1822 107.638 79.8997 108.383 80.4298 109.579L82.7641 114.844L81.2667 115.508ZM78.4471 116.876C77.7999 117.163 77.1808 117.306 76.5899 117.306C76.0099 117.3 75.5032 117.164 75.0697 116.897C74.6313 116.619 74.3027 116.233 74.0839 115.739C73.8748 115.267 73.7948 114.791 73.844 114.31C73.9042 113.823 74.1355 113.353 74.538 112.899C74.9515 112.44 75.5916 112.019 76.4582 111.635L79.2228 110.409L79.7261 111.544L77.0274 112.741C76.2375 113.091 75.7638 113.458 75.6063 113.843C75.4487 114.228 75.4526 114.607 75.618 114.98C75.8076 115.408 76.1309 115.678 76.5877 115.791C77.0396 115.892 77.5673 115.809 78.1706 115.542C78.763 115.279 79.2203 114.919 79.5424 114.461C79.8755 113.998 80.0289 113.471 80.0026 112.879L80.7967 113.826C80.8169 114.434 80.6317 115.009 80.2413 115.549C79.846 116.079 79.248 116.521 78.4471 116.876ZM85.6087 113.583L81.7425 104.862L89.8222 101.28L93.6884 110.002L92.1087 110.702L88.6802 102.968L89.2337 103.195L83.5565 105.712L83.76 105.149L87.1885 112.883L85.6087 113.583ZM96.7452 108.647L92.879 99.9251L94.4587 99.2248L97.2745 105.577L99.8068 96.854L101.238 96.2194L105.105 104.941L103.525 105.641L100.709 99.2893L98.1933 108.005L96.7452 108.647ZM112.016 101.995C111.127 102.389 110.247 102.55 109.375 102.477C108.513 102.399 107.737 102.114 107.045 101.619C106.354 101.125 105.816 100.445 105.431 99.5783C105.047 98.7116 104.904 97.8562 105.003 97.0119C105.101 96.1676 105.413 95.4058 105.939 94.7264C106.471 94.0312 107.181 93.4867 108.069 93.0928C108.859 92.7426 109.632 92.5904 110.387 92.6362C111.149 92.6662 111.836 92.913 112.448 93.3766L111.59 94.6825C111.115 94.3811 110.625 94.2241 110.121 94.2114C109.623 94.1829 109.137 94.2732 108.666 94.4823C108.095 94.7352 107.641 95.0875 107.303 95.5392C106.965 95.9909 106.767 96.5055 106.708 97.083C106.644 97.6495 106.75 98.2454 107.028 98.8707C107.305 99.496 107.677 99.9807 108.145 100.325C108.612 100.669 109.127 100.867 109.689 100.92C110.25 100.973 110.816 100.873 111.387 100.62C111.858 100.411 112.253 100.118 112.572 99.7405C112.896 99.3472 113.106 98.8735 113.202 98.3192L114.739 98.5436C114.666 99.2978 114.39 99.978 113.911 100.584C113.437 101.175 112.806 101.645 112.016 101.995ZM122.92 97.0434L122.103 95.2004L121.867 94.8913L120.474 91.7483C120.177 91.0791 119.751 90.651 119.196 90.464C118.647 90.2613 117.983 90.3325 117.204 90.6778C116.688 90.9064 116.222 91.2178 115.806 91.6122C115.386 91.9956 115.069 92.4053 114.855 92.8413L113.672 91.9483C113.961 91.3869 114.377 90.8743 114.919 90.4106C115.468 89.9311 116.088 89.5381 116.779 89.2317C117.975 88.7016 119.025 88.5839 119.93 88.8784C120.835 89.1729 121.553 89.918 122.083 91.1138L124.417 96.3796L122.92 97.0434ZM120.1 98.4114C119.453 98.6983 118.834 98.8415 118.243 98.841C117.663 98.8355 117.156 98.6992 116.723 98.4319C116.285 98.1537 115.956 97.7678 115.737 97.2741C115.528 96.8024 115.448 96.3259 115.497 95.8447C115.557 95.3586 115.789 94.8885 116.191 94.4344C116.605 93.9755 117.245 93.5539 118.111 93.1697L120.876 91.9442L121.379 93.0796L118.681 94.276C117.891 94.6261 117.417 94.9936 117.259 95.3785C117.102 95.7634 117.106 96.1423 117.271 96.5153C117.461 96.9431 117.784 97.2133 118.241 97.3259C118.693 97.4274 119.22 97.3445 119.824 97.077C120.416 96.8144 120.874 96.4542 121.196 95.9963C121.529 95.5337 121.682 95.0062 121.656 94.4141L122.45 95.3615C122.47 95.9695 122.285 96.5438 121.895 97.0844C121.499 97.6141 120.901 98.0564 120.1 98.4114ZM128.99 94.3526L125.554 86.602L126.131 86.8383L122.544 88.4286L121.931 87.0463L129.896 83.5157L130.508 84.8979L126.938 86.4809L127.134 85.9017L130.57 93.6523L128.99 94.3526ZM136.856 83.9744C137.969 83.4942 138.925 83.372 139.725 83.6079C140.526 83.8439 141.125 84.4116 141.524 85.3112C141.942 86.2546 141.948 87.1252 141.54 87.9229C141.127 88.7096 140.337 89.3552 139.169 89.8597L135.377 91.521L131.511 82.7996L133.091 82.0993L134.397 85.0448L136.856 83.9744ZM138.505 88.7168C139.223 88.4117 139.697 88.0308 139.928 87.5741C140.17 87.1125 140.162 86.591 139.904 86.0096C139.651 85.4391 139.285 85.1025 138.807 84.9997C138.328 84.8969 137.724 85.0005 136.995 85.3105L134.907 86.1967L136.425 89.6195L138.505 88.7168Z" fill="#F8F8F8"/>
</svg>
