<svg width="150" height="150" viewBox="0 0 150 150" fill="none" xmlns="http://www.w3.org/2000/svg">
<circle cx="75" cy="75" r="75" fill="#262626"/>
<path d="M44.8825 82.4263L46.3452 81.7779L50.8842 92.0169L49.4214 92.6653L44.8825 82.4263ZM43.5413 95.272L42.0786 95.9204L37.5396 85.6814L39.0023 85.033L43.5413 95.272ZM47.53 88.0433L41.372 90.7732L40.8078 89.5006L46.9659 86.7707L47.53 88.0433ZM58.5973 88.5977L57.871 86.9595L57.6617 86.6847L56.4232 83.8909C56.1595 83.2961 55.7808 82.9156 55.2871 82.7494C54.7989 82.5691 54.2085 82.6325 53.5162 82.9394C53.0579 83.1426 52.6439 83.4194 52.2742 83.77C51.9003 84.1108 51.6183 84.4749 51.4284 84.8625L50.3765 84.0687C50.6336 83.5697 51.0034 83.1141 51.4857 82.7019C51.9735 82.2756 52.5246 81.9263 53.1389 81.654C54.2018 81.1828 55.1355 81.0781 55.9399 81.3399C56.7444 81.6017 57.3822 82.264 57.8534 83.3269L59.9283 88.0076L58.5973 88.5977ZM56.091 89.8137C55.5157 90.0688 54.9654 90.196 54.4401 90.1955C53.9246 90.1907 53.4742 90.0695 53.0888 89.832C52.6992 89.5847 52.4071 89.2416 52.2126 88.8028C52.0267 88.3835 51.9556 87.9599 51.9993 87.5322C52.0528 87.1001 52.2585 86.6822 52.6162 86.2786C52.9838 85.8707 53.5527 85.4959 54.3231 85.1544L56.7805 84.0651L57.2279 85.0744L54.829 86.1378C54.1269 86.449 53.7058 86.7757 53.5658 87.1178C53.4258 87.4599 53.4292 87.7967 53.5762 88.1283C53.7448 88.5086 54.0321 88.7488 54.4382 88.8488C54.8399 88.9391 55.3089 88.8653 55.8452 88.6276C56.3718 88.3941 56.7783 88.0739 57.0646 87.667C57.3606 87.2557 57.497 86.7869 57.4737 86.2605L58.1796 87.1027C58.1975 87.6432 58.0329 88.1537 57.6859 88.6342C57.3345 89.105 56.8029 89.4982 56.091 89.8137ZM62.4569 86.8867L59.0203 79.1343L66.2022 75.9506L69.6389 83.703L68.2346 84.3255L65.1871 77.4507L65.6791 77.6526L60.6327 79.8897L60.8135 79.3895L63.8611 86.2642L62.4569 86.8867ZM72.356 82.4985L68.9193 74.7461L70.3235 74.1236L72.8265 79.7697L75.0774 72.0162L76.3499 71.4521L79.7866 79.2045L78.3824 79.827L75.8795 74.1809L73.6432 81.9279L72.356 82.4985ZM85.9299 76.5862C85.1401 76.9363 84.3574 77.0791 83.5821 77.0144C82.8164 76.9455 82.1262 76.6914 81.5115 76.2522C80.8967 75.8129 80.4186 75.2081 80.0771 74.4378C79.7356 73.6674 79.6085 72.907 79.6959 72.1565C79.7833 71.4061 80.0606 70.7289 80.528 70.125C81.0008 69.5071 81.6321 69.023 82.422 68.6729C83.1241 68.3616 83.8109 68.2263 84.4823 68.2671C85.1592 68.2937 85.7698 68.5131 86.3142 68.9251L85.5511 70.086C85.129 69.818 84.6938 69.6785 84.2454 69.6672C83.8025 69.6419 83.3713 69.7221 82.952 69.908C82.445 70.1328 82.0412 70.446 81.7408 70.8475C81.4405 71.249 81.264 71.7064 81.2115 72.2197C81.1547 72.7233 81.2495 73.253 81.4959 73.8088C81.7423 74.3646 82.0733 74.7955 82.4889 75.1013C82.9045 75.4071 83.3619 75.5835 83.8612 75.6306C84.3604 75.6776 84.8636 75.5888 85.3706 75.364C85.79 75.1781 86.1411 74.9174 86.4241 74.5819C86.7125 74.2324 86.8992 73.8113 86.9842 73.3186L88.3502 73.5181C88.2857 74.1884 88.0403 74.7931 87.6142 75.332C87.1935 75.8569 86.6321 76.2749 85.9299 76.5862ZM95.6224 72.1845L94.8961 70.5463L94.6868 70.2715L93.4483 67.4777C93.1846 66.8829 92.8059 66.5024 92.3122 66.3362C91.824 66.156 91.2336 66.2193 90.5413 66.5262C90.083 66.7294 89.669 67.0062 89.2993 67.3568C88.9254 67.6976 88.6434 68.0618 88.4535 68.4493L87.4016 67.6555C87.6587 67.1565 88.0285 66.7009 88.5108 66.2887C88.9986 65.8625 89.5497 65.5132 90.164 65.2408C91.2269 64.7696 92.1606 64.6649 92.965 64.9267C93.7695 65.1885 94.4073 65.8508 94.8785 66.9138L96.9534 71.5945L95.6224 72.1845ZM93.1161 73.4005C92.5408 73.6556 91.9905 73.7829 91.4652 73.7824C90.9497 73.7775 90.4993 73.6563 90.1139 73.4188C89.7243 73.1715 89.4322 72.8284 89.2377 72.3896C89.0518 71.9703 88.9807 71.5468 89.0244 71.119C89.0779 70.6869 89.2836 70.2691 89.6413 69.8654C90.0089 69.4575 90.5778 69.0828 91.3482 68.7413L93.8056 67.6519L94.253 68.6612L91.8541 69.7246C91.152 70.0358 90.7309 70.3625 90.5909 70.7046C90.4509 71.0467 90.4543 71.3835 90.6013 71.7151C90.7699 72.0954 91.0572 72.3356 91.4633 72.4356C91.865 72.5259 92.334 72.4521 92.8703 72.2144C93.3969 71.981 93.8034 71.6608 94.0897 71.2538C94.3857 70.8425 94.5221 70.3737 94.4988 69.8473L95.2046 70.6895C95.2225 71.23 95.058 71.7405 94.7109 72.221C94.3596 72.6918 93.828 73.085 93.1161 73.4005ZM101.018 69.7927L97.9638 62.9033L98.4769 63.1134L95.2882 64.5269L94.7435 63.2982L101.823 60.1599L102.368 61.3886L99.1937 62.7956L99.368 62.2808L102.422 69.1702L101.018 69.7927ZM108.01 60.5676C108.999 60.1408 109.849 60.0322 110.561 60.2419C111.272 60.4516 111.805 60.9563 112.159 61.7559C112.531 62.5945 112.536 63.3683 112.173 64.0774C111.807 64.7767 111.104 65.3506 110.066 65.799L106.696 67.2758L103.259 59.5234L104.663 58.9009L105.824 61.5191L108.01 60.5676ZM109.476 64.7831C110.114 64.5119 110.536 64.1733 110.741 63.7674C110.956 63.3571 110.949 62.8935 110.719 62.3767C110.495 61.8696 110.169 61.5704 109.744 61.479C109.318 61.3876 108.782 61.4797 108.134 61.7553L106.278 62.543L107.626 65.5855L109.476 64.7831Z" fill="#F8F8F8"/>
</svg>
