<svg width="170" height="45" viewBox="0 0 170 45" fill="none" xmlns="http://www.w3.org/2000/svg">
<mask id="mask0_807_5110" style="mask-type:luminance" maskUnits="userSpaceOnUse" x="0" y="0" width="169" height="45">
<path d="M0 0H169V45H0V0Z" fill="white"/>
</mask>
<g mask="url(#mask0_807_5110)">
<path fill-rule="evenodd" clip-rule="evenodd" d="M13.207 4.59352C16.0747 3.10582 19.2579 2.32905 22.4885 2.3286C26.7658 2.32864 30.9326 3.68772 34.3877 6.20975C37.8427 8.73178 40.4074 12.2864 41.7118 16.3607H44.1385C42.7862 11.592 39.8974 7.40331 35.9205 4.44533C31.9437 1.48735 27.1015 -0.0743796 22.1462 0.00272382C17.1908 0.0798272 12.3995 1.79145 8.51661 4.87172C4.6337 7.952 1.87646 12.2285 0.673162 17.037C-0.530139 21.8456 -0.112151 26.9169 1.8622 31.4634C3.83656 36.01 7.25677 39.7772 11.5916 42.1799C15.9264 44.5826 20.9332 45.4864 25.8344 44.7509C30.7354 44.0153 35.2566 41.6816 38.6954 38.1122H35.2526C32.7513 40.157 29.7953 41.5708 26.6337 42.2346C23.472 42.8984 20.1972 42.7927 17.0849 41.9264C13.9726 41.0601 11.1139 39.4586 8.74969 37.2567C6.3854 35.0547 4.58469 32.3169 3.49914 29.2736C2.4136 26.2304 2.075 22.9708 2.51188 19.7693C2.94876 16.5679 4.1483 13.5183 6.00952 10.8773C7.87074 8.23629 10.3391 6.08122 13.207 4.59352ZM26.6978 39.5072C27.5687 39.5072 28.6573 38.448 28.6573 37.5338V24.3773C28.6616 23.4437 28.3702 22.533 27.8249 21.7754C27.4993 21.3682 26.9143 21.0323 26.4305 20.7546L26.4283 20.7534C26.3738 20.7221 26.3206 20.6915 26.2691 20.6617C26.1666 20.6034 26.0456 20.5407 25.9193 20.4751C25.465 20.2392 24.9401 19.9668 24.9401 19.7361C24.9401 19.5926 25.2621 19.4105 25.6433 19.195C26.0456 18.9676 26.5138 18.7027 26.7386 18.4069C27.1763 17.8307 27.5438 16.9188 27.4485 16.2202C27.3256 15.4076 26.8782 14.6816 26.4206 13.9394C26.228 13.6269 26.0336 13.3114 25.8609 12.9855C25.4458 12.221 25.2168 11.0664 25.083 10.1817C25.0244 9.80194 24.9983 9.41812 24.9725 9.0369C24.9151 8.19322 24.8586 7.36198 24.4525 6.6136C24.2527 6.27144 23.9667 5.9876 23.6231 5.79033C23.2796 5.59307 22.8903 5.48927 22.4941 5.48927C22.0979 5.48927 21.7087 5.59307 21.3651 5.79033C21.0214 5.9876 20.7355 6.27144 20.5357 6.6136C20.1254 7.36409 20.0714 8.19615 20.0164 9.04334C19.9914 9.42778 19.9662 9.81544 19.9074 10.1999C19.7736 11.0846 19.5468 12.2415 19.1295 13.0036C18.9551 13.3366 18.7573 13.6587 18.5612 13.9779C18.1094 14.713 17.6669 15.4332 17.5419 16.2383C17.449 16.937 17.8504 17.8624 18.2541 18.425C18.4623 18.7152 18.9337 18.9812 19.3413 19.2113C19.7239 19.4272 20.0503 19.6115 20.0503 19.7543C20.0503 19.9843 19.5285 20.2558 19.0762 20.4912C18.9487 20.5575 18.8268 20.621 18.7235 20.6798C18.6713 20.71 18.6173 20.7408 18.562 20.7725C18.0767 21.0499 17.491 21.3845 17.1655 21.7935C16.6232 22.5526 16.3321 23.4624 16.3331 24.3953V37.552C16.3331 38.4592 17.4195 39.5254 18.2926 39.5254L26.6978 39.5072ZM25.7837 37.6676H19.2134C18.7304 37.6676 18.0794 37.561 18.0794 36.8238V24.9443C18.0794 23.7353 18.5875 22.2222 19.9301 21.7686C20.4676 21.5803 21.8896 20.7478 21.8896 20.0764C21.8896 19.4166 21.2494 18.8177 20.6352 18.2431C20.5377 18.152 20.4409 18.0614 20.3474 17.9713C20.0118 17.6629 19.4607 16.7759 19.5151 16.1861C19.5995 15.4247 20.0234 14.7257 20.448 14.0254C20.7647 13.5031 21.0819 12.9801 21.2592 12.4297C21.4303 11.9061 21.4818 11.2454 21.5317 10.6057C21.5598 10.2447 21.5874 9.89065 21.6356 9.57154C21.6493 9.48011 21.663 9.37452 21.6778 9.25997C21.7787 8.48212 21.9333 7.28958 22.5066 7.28958C23.0809 7.28958 23.2367 8.48649 23.338 9.26424C23.3527 9.37714 23.3662 9.48123 23.3797 9.57154C23.4282 9.89159 23.4555 10.2472 23.4833 10.6095C23.5324 11.2487 23.5832 11.9086 23.754 12.4297C23.9326 12.9813 24.2493 13.5054 24.5655 14.0289C24.9879 14.728 25.4095 15.4259 25.5003 16.1861C25.5524 16.7759 25.0036 17.6629 24.6679 17.9713C24.5716 18.0645 24.4715 18.1582 24.3708 18.2524C23.7602 18.8241 23.1235 19.4203 23.1235 20.0764C23.1235 20.7569 24.5455 21.5803 25.083 21.7686C26.4256 22.2222 26.9359 23.7148 26.9359 24.9443V36.8192C26.9246 37.5746 26.2669 37.6676 25.7837 37.6676ZM22.4975 29.1657C23.0893 29.1657 23.7721 28.9389 24.1213 28.5215C24.5749 27.9702 24.6996 27.2194 24.7519 26.5071C24.7507 25.969 24.646 25.436 24.4434 24.9375C24.341 24.6828 24.1648 24.4286 23.9899 24.1764C23.8235 23.9366 23.6584 23.6984 23.5589 23.463C23.1236 22.4684 22.7686 21.4405 22.4975 20.3893C22.2281 21.4408 21.8739 22.4688 21.4383 23.463C21.3387 23.7014 21.1717 23.9425 21.0036 24.1854C20.831 24.4347 20.6572 24.6858 20.5538 24.9375C20.3515 25.4361 20.2461 25.9689 20.2431 26.5071C20.2975 27.2194 20.4177 27.9702 20.8736 28.5215C21.2228 28.9365 21.9077 29.1657 22.4975 29.1657ZM46.4994 29.6579L49.9014 30.7376C49.3798 32.637 48.5119 34.0464 47.2978 34.9659C46.0837 35.8853 44.5437 36.3465 42.6779 36.3496C40.3691 36.3496 38.4708 35.5602 36.9831 33.9813C35.4952 32.4026 34.7521 30.2454 34.7536 27.5098C34.7536 24.6152 35.5013 22.3673 36.9966 20.7658C38.492 19.1644 40.4576 18.3629 42.8933 18.3614C45.0208 18.3614 46.7489 18.9905 48.078 20.2487C48.8672 20.9927 49.4599 22.0604 49.856 23.4516L46.3816 24.2818C46.22 23.4377 45.7615 22.6794 45.0892 22.1443C44.4169 21.6091 43.5751 21.3326 42.7165 21.3647C42.1226 21.3456 41.5322 21.4605 40.9887 21.7008C40.4453 21.9411 39.963 22.3007 39.5776 22.753C38.7747 23.6784 38.3733 25.177 38.3733 27.2489C38.3733 29.4462 38.7687 31.0121 39.5594 31.9467C39.9331 32.3994 40.4053 32.7608 40.9398 33.0034C41.4743 33.2459 42.0572 33.3632 42.6439 33.3462C43.5302 33.3649 44.3908 33.0472 45.0525 32.4571C45.7238 31.8642 46.2061 30.9312 46.4994 29.6579ZM66.8002 18.6586H52.9656V36.0593H56.4809V21.5779H63.2848V36.0593H66.8002V18.6586ZM79.8139 18.2548H82.0819C82.0108 19.2589 81.7477 20.0203 81.2926 20.5391C80.8374 21.0578 79.714 21.3164 77.9223 21.3149C77.7092 21.3149 77.496 21.3149 77.2828 21.3035H76.8655C75.9895 21.2765 75.1152 21.3946 74.2777 21.6528C73.5926 21.9034 73.0161 22.3846 72.6471 23.0139C72.2252 23.6853 72.006 24.7688 71.9894 26.2644C72.4162 25.4076 73.0756 24.6883 73.8922 24.1889C75.0239 23.5735 76.331 23.361 77.5993 23.586C78.8677 23.811 80.0219 24.4603 80.873 25.4274C81.9937 26.6432 82.6093 28.2402 82.5944 29.8939C82.6064 30.7324 82.4523 31.565 82.1409 32.3437C81.8295 33.1224 81.367 33.8316 80.7801 34.4306C79.5704 35.6964 77.995 36.3284 76.0536 36.3269C74.8112 36.3573 73.5865 36.028 72.5269 35.3788C71.5349 34.7633 70.7719 33.8399 70.3542 32.7497C69.9202 31.6382 69.7032 29.7978 69.7032 27.2285C69.7032 24.204 70.2589 22.0324 71.3702 20.7137C72.4815 19.3951 74.4206 18.735 77.1876 18.7334H78.8727C79.3369 18.7319 79.6506 18.5724 79.8139 18.2548ZM73.1007 29.8462C73.1007 30.994 73.3872 31.9014 73.9603 32.5683C74.2124 32.8837 74.5328 33.1379 74.8974 33.3115C75.2619 33.4852 75.6611 33.5738 76.0649 33.5709C76.487 33.5803 76.9055 33.4913 77.2874 33.311C77.6692 33.1306 78.0038 32.8639 78.2648 32.532C78.8394 31.8394 79.1266 30.9479 79.1266 29.8576C79.1266 28.7415 78.8356 27.8417 78.2535 27.1582C77.9967 26.839 77.6719 26.5812 77.3029 26.4035C76.9339 26.2258 76.5299 26.1327 76.1202 26.131C75.7107 26.1292 75.3059 26.219 74.9353 26.3935C74.5648 26.5681 74.2379 26.8231 73.9783 27.14C73.3902 27.813 73.0961 28.715 73.0961 29.8462H73.1007ZM85.3954 18.6586V36.0593H88.9084V28.4466H95.7868V36.0593H99.2981V18.6586H95.7868V25.5045H88.9084V18.6586H85.3954ZM102.977 18.6586H106.263V30.2386L113.307 18.6699H116.807V36.0593H113.523V24.6969L106.492 36.0524H102.977V18.6586ZM123.724 18.6586H120.438V36.0593H123.949L130.984 24.6969V36.0593H134.27V18.6699H130.77L123.724 30.2386V18.6586ZM137.874 18.6585H144.814C145.844 18.6377 146.873 18.6952 147.894 18.8308C148.543 18.9359 149.163 19.1805 149.709 19.5476C150.255 19.9272 150.711 20.4239 151.042 21.0017C151.403 21.6209 151.587 22.3267 151.577 23.0432C151.578 23.8411 151.347 24.6223 150.914 25.2919C150.48 25.9615 149.861 26.4907 149.132 26.8155C150.099 27.0643 150.957 27.6218 151.577 28.4034C152.149 29.1562 152.45 30.0804 152.43 31.0256C152.427 31.827 152.239 32.6168 151.879 33.3325C151.538 34.0486 151.019 34.6654 150.373 35.1245C149.671 35.5947 148.861 35.8789 148.019 35.9503C147.434 36.0138 146.021 36.0531 143.782 36.0682H137.874V18.6585ZM141.388 21.5529V25.577H143.686C145.048 25.577 145.898 25.5565 146.239 25.5158C146.768 25.4766 147.268 25.2572 147.656 24.8942C147.83 24.7142 147.965 24.5007 148.054 24.2667C148.142 24.0327 148.182 23.7831 148.171 23.5332C148.19 23.0547 148.027 22.5866 147.717 22.2221C147.368 21.8606 146.897 21.643 146.395 21.6119C146.048 21.5711 145.045 21.5506 143.394 21.5506L141.388 21.5529ZM141.388 28.4714V33.1216H144.637C145.441 33.1467 146.245 33.111 147.044 33.015C147.536 32.9365 147.987 32.6915 148.32 32.3209C148.664 31.9078 148.839 31.3807 148.812 30.8442C148.827 30.3722 148.694 29.9075 148.432 29.5149C148.162 29.1384 147.778 28.8598 147.336 28.7209C146.856 28.5531 145.819 28.4699 144.222 28.4714H141.388ZM169 30.7376L165.598 29.6579C165.304 30.9312 164.821 31.8642 164.148 32.4571C163.486 33.0468 162.626 33.3644 161.739 33.3462C161.153 33.3632 160.57 33.2459 160.036 33.0034C159.501 32.7608 159.029 32.3994 158.656 31.9467C157.864 31.0121 157.47 29.4462 157.47 27.2489C157.47 25.177 157.871 23.6784 158.674 22.753C159.059 22.3009 159.541 21.9414 160.084 21.701C160.627 21.4608 161.216 21.3458 161.81 21.3647C162.67 21.3321 163.511 21.6083 164.185 22.1436C164.857 22.6787 165.316 23.4374 165.478 24.2818L168.952 23.4516C168.556 22.0604 167.963 20.9927 167.174 20.2487C165.845 18.9905 164.117 18.3614 161.99 18.3614C159.552 18.3629 157.586 19.1644 156.092 20.7658C154.599 22.3673 153.852 24.6152 153.852 27.5098C153.851 30.2454 154.593 32.4026 156.081 33.9813C157.569 35.5602 159.468 36.3496 161.776 36.3496C163.642 36.3465 165.182 35.8853 166.396 34.9659C167.611 34.0464 168.478 32.637 169 30.7376Z" fill="#2B5090"/>
</g>
</svg>
