<svg width="285" height="130" viewBox="0 0 285 130" fill="none" xmlns="http://www.w3.org/2000/svg">
<g clip-path="url(#clip0_939_6868)">
<rect width="285" height="130" rx="5" fill="#F8F8F8"/>
<path d="M145.188 0C121.432 0 105.057 19.995 105.202 36.2025C111.656 25.9651 117.366 21.7414 130.634 16.4425C132.601 15.657 133.596 15.1031 134.984 13.1252L138.33 7.0674C139.166 5.48084 141.341 6.63469 140.839 7.78856L137.66 14.1348C159.182 10.0975 167.235 6.92552 175.973 0H145.188Z" fill="#D3D3D3"/>
<path d="M131.98 19.7471C119.663 22.7819 103.011 38.5342 105.439 49.5177C107.559 59.1065 120.357 46.0492 131.98 19.7471Z" fill="#D3D3D3"/>
<path d="M140.122 16.5547C161.413 12.5737 170.651 8.22309 177.658 1.64551C178.158 15.8238 178.199 22.2552 173.821 31.1715C167.648 43.742 150.966 52.6582 136.452 52.6582H114.765C117.175 50.4163 118.435 49.1 120.103 46.0805C122.775 41.2443 124.277 39.3715 126.943 37.3104C131.64 34.1331 136.316 32.9216 146.128 31.1715C152.491 30.1748 155.85 28.77 161.643 25.4709C162.811 24.7401 161.083 23.1874 160.308 23.5707C155.042 26.1778 152.133 27.4236 145.794 28.3943C135.634 29.9501 131.507 31.095 126.943 33.6562C131.063 23.519 135.243 17.467 140.122 16.5547Z" fill="#D3D3D3"/>
<path d="M0 103.671H4.36324V90.1632H22.9891V89.5637H4.36324V76.2957H14.3095C18.1567 76.3757 22.6138 76.7353 24.8658 77.2948L24.3966 75.6963H0V103.671Z" fill="#D3D3D3"/>
<path d="M38.2549 103.671H62.6766L63.1207 102.072C60.9893 102.632 56.771 102.992 53.1299 103.071H42.3844V90.1232H60.0124V89.5238H42.3844V76.2957H52.2419C55.8829 76.3757 60.1012 76.7353 62.2326 77.2948L61.7886 75.6963H38.2549V103.671Z" fill="#D3D3D3"/>
<path d="M78.4229 103.671H102.828L103.289 102.072C101.078 102.632 96.7038 102.992 92.9279 103.071H82.7053V75.6963H78.4229V103.671Z" fill="#D3D3D3"/>
<path d="M116.678 103.671H120.503V75.6963H116.678V103.671Z" fill="#D3D3D3"/>
<path d="M137.718 103.671H141.912V92.601L144.617 89.6836L155.169 103.671H160.671C158.687 102.192 157.514 100.913 155.936 99.0751L147.007 87.1259L157.604 75.6963H156.748L141.912 91.6818V75.6963H137.718V103.671Z" fill="#D3D3D3"/>
<path d="M184.365 103.671C191.949 103.671 199.064 101.416 198.924 96.3333C198.924 91.6709 193.775 89.9893 186.753 88.0403C180.808 86.397 175.612 84.5244 175.612 81.0084C175.612 78.5625 178.514 76.1549 183.616 76.1549C189.655 76.1549 193.915 77.9511 197.332 80.0148L196.864 77.8364C193.119 76.5371 190.076 75.6963 184.74 75.6963C175.612 75.6963 172.147 78.6772 172.147 82.7282C172.147 87.7346 178.514 90.0658 184.599 91.6709C191.668 93.5053 194.898 95.2633 194.898 98.3588C194.898 101.187 190.451 103.212 185.442 103.212C179.637 103.212 175.565 101.416 172.147 99.3524L172.616 101.531C176.314 102.83 179.31 103.671 184.365 103.671Z" fill="#D3D3D3"/>
<path d="M212.315 89.6836C212.315 98.0913 219.192 103.671 229.508 103.671C239.868 103.671 246.745 98.0913 246.745 89.6836C246.745 81.2759 239.868 75.6963 229.508 75.6963C219.192 75.6963 212.315 81.2759 212.315 89.6836ZM217.609 93.3524C215.03 87.3524 215.98 79.174 223.852 76.7664C225.3 76.346 226.657 76.1167 227.969 76.1167C234.349 76.1167 239.189 80.8556 241.406 86.0148C244.166 92.4352 242.447 100.384 235.118 102.639C233.715 103.059 232.358 103.289 231.046 103.289C224.893 103.289 219.961 98.7792 217.609 93.3524Z" fill="#D3D3D3"/>
<path d="M269.236 103.671H269.896L283.087 75.6963H282.296L271.479 98.667L260.926 75.6963H256.309L269.236 103.671Z" fill="#D3D3D3"/>
<path d="M65.0332 130H68.8677C72.3113 130 74.597 128.025 74.597 125.063C74.597 122.101 72.3113 120.126 68.9128 120.126H65.0332V130ZM69.379 129.788H66.4317V120.338H68.3414C71.379 120.338 73.2135 123.272 73.2135 125.825C73.2286 127.884 72.0406 129.788 69.379 129.788Z" fill="#D3D3D3"/>
<path d="M87.9863 130H89.8991V120.126H87.9863V130Z" fill="#D3D3D3"/>
<path d="M107.505 130H109.027L104.397 120.126H104.125L101.033 126.871C100.04 129.04 99.9435 129.36 99.4629 130H99.8794L101.545 126.343V126.412H105.871L107.505 130ZM101.626 126.176L103.692 121.642L105.759 126.176H101.626Z" fill="#D3D3D3"/>
<path d="M126.539 130H126.861L130.399 120.578L132.253 130H133.892L131.916 120.126H130.246L127.274 128.025L123.613 120.126H121.928L121.024 127.926C120.825 129.379 120.763 129.69 120.503 130H121.146L122.188 120.564L126.539 130Z" fill="#D3D3D3"/>
<path d="M143.456 125.063C143.456 128.031 145.748 130 149.187 130C152.64 130 154.933 128.031 154.933 125.063C154.933 122.096 152.64 120.126 149.187 120.126C145.748 120.126 143.456 122.096 143.456 125.063ZM145.221 126.358C144.361 124.24 144.678 121.354 147.302 120.504C147.784 120.356 148.237 120.275 148.674 120.275C150.8 120.275 152.414 121.947 153.153 123.768C154.073 126.034 153.5 128.84 151.057 129.636C150.589 129.784 150.137 129.865 149.7 129.865C147.649 129.865 146.005 128.273 145.221 126.358Z" fill="#D3D3D3"/>
<path d="M175.69 130H175.973V120.126H175.744V127.616L169.683 120.126H168.524V126.84C168.511 127.997 168.511 129.323 168.322 130H168.753V121.354L175.69 130Z" fill="#D3D3D3"/>
<path d="M189.362 130H193.197C196.64 130 198.926 128.025 198.926 125.063C198.926 122.101 196.64 120.126 193.242 120.126H189.362V130ZM193.708 129.788H190.761V120.338H192.671C195.708 120.338 197.543 123.272 197.543 125.825C197.558 127.884 196.37 129.788 193.708 129.788Z" fill="#D3D3D3"/>
<path d="M214.766 130C217.474 130 220.016 129.204 219.965 127.41C219.965 125.765 218.126 125.171 215.619 124.483C213.495 123.903 211.64 123.242 211.64 122.001C211.64 121.138 212.676 120.288 214.498 120.288C216.655 120.288 218.176 120.922 219.397 121.651L219.23 120.882C217.892 120.423 216.806 120.126 214.9 120.126C211.64 120.126 210.402 121.179 210.402 122.608C210.402 124.375 212.676 125.198 214.849 125.765C217.374 126.412 218.528 127.032 218.528 128.125C218.528 129.123 216.939 129.838 215.15 129.838C213.077 129.838 211.623 129.204 210.402 128.476L210.57 129.245C211.89 129.703 212.96 130 214.766 130Z" fill="#D3D3D3"/>
</g>
<defs>
<clipPath id="clip0_939_6868">
<rect width="285" height="130" rx="5" fill="white"/>
</clipPath>
</defs>
</svg>
