<svg width="285" height="130" viewBox="0 0 285 130" fill="none" xmlns="http://www.w3.org/2000/svg">
<rect width="285" height="130" rx="5" fill="#F8F8F8"/>
<g clip-path="url(#clip0_939_6856)">
<path d="M171.107 80.8811C172.873 75.7105 175.129 69.5427 176.643 65.5036C178.883 64.6855 180.692 66.2666 181.316 67.1595L176.923 79.209C178.698 78.6692 180.518 78.0881 182.307 77.4788L182.356 77.3153C183.719 72.1849 185.786 63.3273 187.066 62.8599C188.667 62.2754 194.649 61.6598 192.697 65.2866C191.833 66.8926 189.705 70.9299 187.849 75.4434C193.242 73.2883 197.449 70.9778 197.824 68.9771C197.457 71.054 196.406 75.4127 195.144 76.232C194.548 76.6192 190.753 78.1745 186.201 79.861C184.772 84.1929 184.016 88.3927 185.202 90.8461C183.358 91.968 179.737 92.3934 180.01 85.1206L181.036 81.7085C179.056 82.3895 177.1 83.0281 175.34 83.5507L174.717 85.2603C174.129 88.3146 172.792 94.4813 172.152 94.7151C171.351 95.0073 169.121 91.3384 168.452 90.2378C168.267 89.9326 168.839 87.8124 169.79 84.8445C169.068 84.911 168.6 84.8505 168.465 84.6291C167.573 83.1616 167.586 82.1106 167.704 81.7688C168.738 81.5109 169.883 81.2129 171.107 80.8811Z" fill="#D3D3D3"/>
<path d="M219.914 75.2082C221.844 69.869 224.303 63.5015 225.952 59.332C228.315 58.5046 230.188 60.1582 230.83 61.0884L226.04 73.5284C227.91 72.9853 229.827 72.3997 231.713 71.7845L231.767 71.6156C233.274 66.3144 236.41 56.8585 237.76 56.3857C239.448 55.7946 245.733 55.2109 243.631 58.9493C242.701 60.603 240.248 64.8167 238.053 69.5339C243.504 67.4048 247.707 65.1265 248.118 63.1184C247.701 65.266 246.534 69.7707 245.197 70.6081C244.58 70.9951 240.734 72.5126 236.073 74.1753C234.341 78.7093 233.341 83.1033 234.549 85.6545C232.597 86.7999 228.793 87.2081 229.189 79.6784L230.316 76.1539C228.229 76.8415 226.168 77.4854 224.314 78.0109L223.634 79.776C222.971 82.9338 221.476 89.3083 220.801 89.5447C219.957 89.8402 217.673 86.0208 216.988 84.8748C216.798 84.5571 217.431 82.3666 218.472 79.3011C217.714 79.3636 217.224 79.2968 217.086 79.0662C216.173 77.5384 216.202 76.4503 216.331 76.0971C217.419 75.8393 218.625 75.5411 219.914 75.2082Z" fill="#D3D3D3"/>
<path d="M115.988 100.631C117.171 100.033 120.321 81.1438 121.748 71.7738C124.045 71.2162 128.49 70.6257 127.892 72.7239C127.145 75.3468 127.185 77.0085 127.179 78.5081C127.174 80.0079 127.183 77.571 130.148 73.6405C132.519 70.4961 135.398 72.3391 136.541 73.6538C133.321 80.0207 135.044 79.4621 135.536 79.4631C135.536 79.4631 139.575 73.1419 140.155 71.6435C143.312 68.8007 146.387 70.7193 147.53 72.0337C144.377 73.3769 143.08 88.6091 142.726 95.6696C141.736 95.61 140.235 95.7816 138.841 94.886C137.149 93.7991 138.725 79.7438 139.71 79.3709C138.244 76.7434 132.961 96.3384 131.482 97.4598C130.002 98.5815 128.033 99.1399 126.806 98.5748C125.824 98.1229 128.136 85.8837 130.125 80.014C125.948 79.068 121.646 99.8928 120.168 100.64C118.69 101.386 114.51 101.378 115.988 100.631Z" fill="#D3D3D3"/>
<path d="M240.08 85.0458C241.341 84.5106 246.365 65.7008 248.72 56.3626C251.111 55.9291 255.693 55.5807 254.883 57.6565C253.87 60.2513 253.75 61.9233 253.601 63.4302C253.451 64.9371 253.694 62.4884 257.091 58.7018C259.808 55.6727 262.561 57.6838 263.598 59.0679C259.707 65.289 261.516 64.8225 262.016 64.8506C262.016 64.8506 266.736 58.7209 267.47 57.2468C270.957 54.5641 273.904 56.6618 274.941 58.0459C271.601 59.2219 268.815 74.4583 267.776 81.5343C266.774 81.4198 265.23 81.5094 263.896 80.5326C262.279 79.347 265.236 65.3086 266.273 64.9882C265.035 62.2668 257.771 81.6679 256.157 82.7135C254.543 83.7592 252.485 84.2117 251.29 83.5762C250.334 83.0679 253.865 70.8951 256.454 65.1059C252.293 63.9249 245.911 84.6161 244.334 85.2851C242.758 85.954 238.503 85.7147 240.08 85.0458Z" fill="#D3D3D3"/>
<path d="M93.9895 90.8453C95.7412 85.5296 97.9794 79.1884 99.4826 75.0357C101.724 74.1905 103.54 75.8112 104.169 76.7273L99.8083 89.1157C101.584 88.5576 103.405 87.9569 105.194 87.3271L105.243 87.1592C106.591 81.8854 109.77 72.41 111.051 71.927C112.652 71.3232 118.641 70.6789 116.698 74.4089C115.843 76.0519 113.521 80.241 111.437 84.9326C116.492 82.7924 120.353 80.5279 120.706 78.5615C120.345 80.6959 119.307 85.1761 118.046 86.0205C117.469 86.4065 113.895 87.9231 109.538 89.5992C107.885 94.1379 106.939 98.5314 108.138 101.055C106.294 102.211 102.67 102.655 102.92 95.183L103.935 91.6754C101.955 92.379 99.9979 93.0392 98.2373 93.5796L97.6188 95.3372C97.0396 98.4762 95.7213 104.814 95.081 105.056C94.2805 105.358 92.035 101.593 91.3613 100.464C91.1744 100.15 91.7412 97.9712 92.6833 94.9199C91.9607 94.9897 91.4918 94.9286 91.3562 94.7013C90.458 93.1954 90.4679 92.1157 90.5849 91.7641C91.6189 91.4971 92.7651 91.1887 93.9895 90.8453Z" fill="#D3D3D3"/>
<path fill-rule="evenodd" clip-rule="evenodd" d="M15.0549 100.72C-4.59867 104.675 14.8781 88.5821 60.3418 56.8789C68.2831 51.4851 66.4702 55.7764 57.6522 70.6883L54.0956 76.23L37.7795 88.0867L37.127 105.299C33.8796 111.885 32.305 115.411 35.19 117.854C37.7397 118.84 39.5289 114.879 42.9552 104.809L55.5524 79.9203L57.8724 78.7721L57.7365 79.3C53.1793 96.9989 50.5825 107.084 59.5776 108.178C68.2676 101.687 69.8439 97.1149 71.3789 88.5984L61.0924 101.378C59.4483 100.038 60.5914 94.3828 65.8916 74.0469C120.93 39.8355 149.632 22.485 168.931 19.3929C162.768 28.4402 152.476 35.4432 136.357 46.4106C134.925 47.385 133.447 48.3908 131.922 49.432C147.498 45.4536 167.465 29.4452 175.502 21.9384C181.861 -4.61573 129.964 25.6365 61.6231 70.2344C76.243 49.3217 74.4378 46.3828 70.9636 46.4543C61.3998 44.5705 5.45521 81.2722 0 97.4585C3.62807 105.494 8.87457 104.472 15.0549 100.72ZM41.3838 91.5965L48.8946 85.4843L41.225 101.38L41.3838 91.5965Z" fill="#D3D3D3"/>
<path fill-rule="evenodd" clip-rule="evenodd" d="M202.061 75.9499C203.858 76.5602 209.29 75.449 216.643 66.1207C219.738 61.7855 215.168 55.3261 207.743 60.3886C200.318 65.4509 188.613 81.1177 197.905 89.2122C200.573 91.493 211.867 82.031 217.18 77.0148C218.931 74.1578 219.124 72.9509 201.059 81.3984C198.152 83.0425 200.63 76.9031 202.061 75.9499ZM206.588 70.6611C208.571 69.2039 212.165 65.9553 210.671 64.6181C209.247 63.3436 206.042 66.999 204.411 69.2593C204.123 70.7612 205.742 70.8197 206.588 70.6611Z" fill="#D3D3D3"/>
<path fill-rule="evenodd" clip-rule="evenodd" d="M84.0463 76.9797C73.7223 73.0921 60.059 103.208 71.2347 107.623C82.1391 108.833 92.5706 79.2179 84.0463 76.9797ZM82.876 80.7198C77.6032 81.2074 69.9519 98.2581 72.6233 103.66C74.3029 106.128 86.5544 81.3885 82.876 80.7198Z" fill="#D3D3D3"/>
<path d="M149.213 83.2424C153.205 73.1247 152.845 68.9889 152.325 68.6126C154.101 68.3256 157.861 68.3499 158.696 70.7414C159.739 73.7307 152.536 86.2584 153.436 89.6653C154.157 92.391 161.861 75.3644 165.438 67.8794C167.386 67.1499 168.544 67.8202 169.323 69.4236C166.323 72.5922 162.923 86.6367 166.177 94.748C165.678 95.0915 163.249 96.0992 161.259 94.6839C159.268 93.2685 159.705 89.1794 160.328 84.2108C158.896 87.0734 155.6 93.2631 153.869 95.1215C151.705 97.4445 144.223 95.8895 149.213 83.2424Z" fill="#D3D3D3"/>
<path d="M278.762 53.3658C283.401 50.3762 270.323 49.9148 263.206 50.0577L264.782 47.047C270.688 46.7764 282.925 46.6982 284.644 48.5509C286.364 50.4037 281.439 52.5327 278.762 53.3658Z" fill="#D3D3D3"/>
</g>
<defs>
<clipPath id="clip0_939_6856">
<rect width="285" height="106" fill="white" transform="translate(0 12)"/>
</clipPath>
</defs>
</svg>
