<svg width="285" height="130" viewBox="0 0 285 130" fill="none" xmlns="http://www.w3.org/2000/svg">
<rect width="285" height="130" rx="5" fill="#F8F8F8"/>
<g clip-path="url(#clip0_939_6889)">
<path d="M16.2228 110L32.2321 20H0L16.0093 110H16.2228Z" fill="#D3D3D3"/>
<path d="M83.3094 32.5735C74.246 24.1912 62.5931 20 48.3506 20H40.1504L35.8344 43.8235H44.898H46.4084C61.0825 43.8235 69.067 51.3236 69.067 65.0001C69.067 78.6764 60.8668 86.1765 46.4084 86.1765H40.1504H28.0658L23.75 110H48.1347C62.3773 110 74.0303 105.809 83.0937 97.4265C92.157 89.0441 96.6887 78.2353 96.6887 65.0001C96.9046 51.7647 92.5886 40.9559 83.3094 32.5735Z" fill="#D3D3D3"/>
<path d="M118.75 87.5002V44.231H132.189C138.802 44.231 144.135 46.2383 148.188 50.2531C152.242 54.2677 154.375 59.3975 154.375 65.8655C154.375 72.3337 152.242 77.4635 148.188 81.4781C144.135 85.4928 138.802 87.5002 132.189 87.5002H118.75ZM123.016 83.2625H131.549C137.309 83.2625 141.789 81.7012 144.989 78.5788C148.188 75.4561 149.895 71.2184 149.895 65.8655C149.895 60.5127 148.188 56.275 144.989 53.1524C141.789 50.03 137.309 48.4686 131.549 48.4686H123.016V83.2625Z" fill="#D3D3D3"/>
<path d="M170.643 79.9137C166.511 75.8047 164.554 70.6145 164.554 64.3429C164.554 58.0711 166.511 52.8809 170.643 48.7718C174.776 44.6628 179.778 42.5 186.085 42.5C190.653 42.5 194.567 43.5814 197.83 45.5278V50.0694C194.132 47.6904 190.218 46.609 186.085 46.609C181.3 46.609 177.168 48.3393 173.906 51.5831C170.643 54.8271 168.903 59.1525 168.903 64.1265C168.903 69.3169 170.426 73.426 173.906 76.67C177.168 79.9137 181.3 81.644 186.085 81.644C190.87 81.644 195.002 80.3465 198.482 77.535V82.0765C195.002 84.4555 190.87 85.753 185.868 85.753C179.778 85.9692 174.776 84.0228 170.643 79.9137Z" fill="#D3D3D3"/>
<path d="M213.447 82.8458C210.184 79.5359 208.661 74.9022 208.661 68.9443V44.231H213.012V68.9443C213.012 78.2118 217.796 83.7284 225.626 83.7284C233.454 83.7284 238.24 78.4326 238.24 68.9443V44.231H242.59V68.7238C242.59 74.6814 241.066 79.5359 237.805 82.625C234.543 85.9349 230.628 87.4795 225.409 87.4795C220.622 87.7001 216.49 86.1554 213.447 82.8458Z" fill="#D3D3D3"/>
<path d="M266.583 87.5002V48.4686H252.768V44.231H285V48.4686H270.978V87.5002H266.583Z" fill="#D3D3D3"/>
</g>
<defs>
<clipPath id="clip0_939_6889">
<rect width="285" height="90" fill="white" transform="translate(0 20)"/>
</clipPath>
</defs>
</svg>
