<svg width="50" height="50" viewBox="0 0 50 50" fill="none" xmlns="http://www.w3.org/2000/svg">
<g clip-path="url(#clip0_1088_7439)">
<path d="M25.1 49.28C18.5789 49.2694 12.328 46.6743 7.71686 42.0632C3.10575 37.452 0.510578 31.2011 0.5 24.68C0.507933 18.1572 3.10194 11.9037 7.71333 7.2904C12.3247 2.67714 18.5772 0.0805915 25.1 0.0700073C31.6211 0.0805849 37.872 2.67576 42.4831 7.28686C47.0942 11.898 49.6894 18.1489 49.7 24.67C49.6921 31.1928 47.0981 37.4463 42.4867 42.0596C37.8753 46.6729 31.6228 49.2694 25.1 49.28ZM25.1 1.83001C19.0432 1.83795 13.2368 4.24822 8.95492 8.532C4.67302 12.8158 2.26529 18.6232 2.26 24.68C2.26794 30.7351 4.67684 36.5399 8.95845 40.8216C13.2401 45.1032 19.0449 47.5121 25.1 47.52C31.1551 47.5121 36.9599 45.1032 41.2416 40.8216C45.5232 36.5399 47.9321 30.7351 47.94 24.68C47.9347 18.6232 45.527 12.8158 41.2451 8.532C36.9632 4.24822 31.1568 1.83795 25.1 1.83001Z" fill="#62C584"/>
<path d="M22.84 30.53L18.4 26.08C18.3068 26.0015 18.2309 25.9044 18.1772 25.795C18.1235 25.6857 18.0931 25.5663 18.0879 25.4445C18.0827 25.3228 18.1029 25.2013 18.1471 25.0877C18.1913 24.9741 18.2587 24.871 18.3448 24.7848C18.431 24.6987 18.5341 24.6313 18.6477 24.5871C18.7613 24.5429 18.8828 24.5227 19.0045 24.5279C19.1263 24.5331 19.2456 24.5635 19.355 24.6172C19.4644 24.6709 19.5615 24.7468 19.64 24.84L22.84 28.04L31.73 19.14C31.8127 19.0579 31.9108 18.9929 32.0187 18.9488C32.1265 18.9046 32.242 18.8821 32.3585 18.8826C32.4751 18.883 32.5904 18.9065 32.6979 18.9515C32.8054 18.9965 32.9029 19.0623 32.985 19.145C33.0671 19.2277 33.132 19.3258 33.1762 19.4337C33.2204 19.5415 33.2429 19.657 33.2424 19.7735C33.242 19.8901 33.2185 20.0054 33.1735 20.1129C33.1285 20.2204 33.0627 20.3179 32.98 20.4L22.84 30.53Z" fill="#62C584"/>
</g>
<defs>
<clipPath id="clip0_1088_7439">
<rect width="50" height="50" fill="white"/>
</clipPath>
</defs>
</svg>
