<svg width="170" height="82" viewBox="0 0 170 82" fill="none" xmlns="http://www.w3.org/2000/svg">
<g clip-path="url(#clip0_807_5099)">
<path d="M102.063 53.2854C103.117 49.2855 104.462 44.5143 105.365 41.3897C106.702 40.7568 107.781 41.9799 108.153 42.6706L105.533 51.9919C106.592 51.5743 107.677 51.1248 108.744 50.6534L108.773 50.527C109.587 46.5582 110.819 39.7061 111.583 39.3445C112.538 38.8923 116.106 38.4162 114.942 41.2218C114.427 42.4642 113.157 45.5874 112.05 49.0789C115.267 47.4118 117.777 45.6244 118 44.0767C117.781 45.6833 117.154 49.0552 116.402 49.689C116.046 49.9885 113.782 51.1916 111.067 52.4963C110.214 55.8474 109.763 59.0963 110.471 60.9942C109.371 61.8621 107.212 62.1912 107.374 56.5651L107.986 53.9255C106.805 54.4523 105.638 54.9463 104.589 55.3506L104.217 56.6731C103.866 59.0359 103.069 63.8063 102.687 63.9872C102.209 64.2132 100.879 61.3751 100.48 60.5236C100.369 60.2875 100.711 58.6474 101.278 56.3515C100.847 56.4029 100.568 56.3561 100.488 56.1848C99.9557 55.0496 99.9635 54.2366 100.034 53.9721C100.65 53.7726 101.334 53.5421 102.063 53.2854Z" fill="#9B1E21"/>
<path d="M131.177 48.8969C132.328 44.7666 133.795 39.8409 134.778 36.6154C136.188 35.9753 137.305 37.2545 137.688 37.9741L134.831 47.5975C135.946 47.1774 137.09 46.7243 138.215 46.2485L138.247 46.1178C139.146 42.0169 141.017 34.7019 141.822 34.3361C142.829 33.8789 146.577 33.4273 145.324 36.3193C144.769 37.5985 143.306 40.8582 141.997 44.5074C145.248 42.8604 147.755 41.0979 148 39.5445C147.751 41.2058 147.055 44.6905 146.258 45.3383C145.89 45.6377 143.596 46.8116 140.816 48.0979C139.782 51.6053 139.186 55.0045 139.906 56.978C138.742 57.8641 136.473 58.1799 136.709 52.355L137.381 49.6285C136.137 50.1604 134.907 50.6586 133.801 51.0651L133.396 52.4305C133 54.8733 132.109 59.8046 131.706 59.9874C131.203 60.216 129.84 57.2614 129.431 56.3749C129.318 56.1291 129.696 54.4346 130.317 52.0632C129.865 52.1115 129.572 52.0598 129.49 51.8814C128.945 50.6995 128.963 49.8578 129.04 49.5845C129.689 49.3852 130.408 49.1545 131.177 48.8969Z" fill="#9B1E21"/>
<path d="M69.1859 68.5634C69.8912 68.1012 71.77 53.4885 72.6213 46.24C73.9915 45.8087 76.6427 45.3518 76.2861 46.975C75.8405 49.004 75.8644 50.2895 75.8612 51.4496C75.858 52.6098 75.8633 50.7246 77.6317 47.684C79.0465 45.2516 80.7635 46.6773 81.4452 47.6943C79.5248 52.6196 80.5526 52.1875 80.8459 52.1883C80.8459 52.1883 83.2553 47.2983 83.6008 46.1392C85.4842 43.94 87.3185 45.4242 88 46.4411C86.1197 47.4801 85.3456 59.2635 85.1349 64.7254C84.5438 64.6793 83.649 64.812 82.8173 64.1193C81.808 63.2784 82.7484 52.4055 83.3358 52.117C82.4614 50.0844 79.3101 65.2428 78.4276 66.1103C77.5451 66.978 76.3705 67.41 75.6384 66.9729C75.0526 66.6233 76.432 57.1552 77.6181 52.6145C75.1266 51.8826 72.5609 67.9924 71.6792 68.5701C70.7975 69.1478 68.3042 69.141 69.1859 68.5634Z" fill="#9B1E21"/>
<path d="M143.206 56.5072C143.958 56.0932 146.955 41.5421 148.359 34.3183C149.786 33.9829 152.518 33.7134 152.035 35.3192C151.431 37.3265 151.36 38.62 151.271 39.7857C151.181 40.9514 151.326 39.0571 153.352 36.1278C154.973 33.7846 156.615 35.3403 157.234 36.4111C154.913 41.2236 155.992 40.8627 156.29 40.8845C156.29 40.8845 159.106 36.1426 159.543 35.0023C161.623 32.927 163.382 34.5497 164 35.6204C162.007 36.5302 160.346 48.3169 159.726 53.7907C159.128 53.7022 158.207 53.7715 157.412 53.0158C156.447 52.0987 158.211 41.2387 158.83 40.9909C158.091 38.8857 153.758 53.8941 152.796 54.703C151.833 55.5119 150.605 55.8619 149.892 55.3703C149.322 54.9771 151.428 45.5604 152.973 41.082C150.491 40.1683 146.684 56.1748 145.743 56.6923C144.803 57.2098 142.265 57.0247 143.206 56.5072Z" fill="#9B1E21"/>
<path d="M56.064 60.9936C57.1089 56.8814 58.4439 51.9759 59.3406 48.7635C60.6775 48.1096 61.761 49.3634 62.1357 50.0721L59.5349 59.6555C60.5943 59.2238 61.68 58.7591 62.7474 58.272L62.7764 58.142C63.5809 54.0623 65.4769 46.7323 66.2409 46.3587C67.1959 45.8916 70.7682 45.3931 69.6095 48.2786C69.0991 49.5496 67.7145 52.7902 66.4714 56.4195C69.4864 54.764 71.7897 53.0122 72 51.491C71.7846 53.1421 71.1656 56.6079 70.4133 57.2612C70.0694 57.5598 67.9375 58.733 65.3385 60.0296C64.3524 63.5406 63.7881 66.9394 64.5033 68.8915C63.4037 69.786 61.2418 70.1297 61.3907 64.3492L61.9965 61.6357C60.8154 62.18 59.6479 62.6907 58.5978 63.1088L58.2288 64.4684C57.8833 66.8967 57.097 71.7999 56.7151 71.9867C56.2375 72.2203 54.8981 69.3079 54.4963 68.4341C54.3848 68.1919 54.7229 66.5061 55.2848 64.1456C54.8538 64.1996 54.5741 64.1523 54.4932 63.9765C53.9575 62.8116 53.9634 61.9763 54.0332 61.7043C54.65 61.4978 55.3336 61.2592 56.064 60.9936Z" fill="#9B1E21"/>
<path fill-rule="evenodd" clip-rule="evenodd" d="M8.98014 68.6328C-2.74307 71.6923 8.87464 59.2427 35.9933 34.7176C40.7302 30.5451 39.6489 33.8648 34.389 45.4004L32.2675 49.6873L22.5352 58.8595L22.1459 72.1749C20.2089 77.2692 19.2696 79.997 20.9905 81.8867C22.5114 82.65 23.5786 79.5855 25.6224 71.7958L33.1365 52.5421L34.5204 51.6539L34.4393 52.0622C31.721 65.7538 30.172 73.5558 35.5375 74.4017C40.721 69.3808 41.6613 65.8436 42.5769 59.2554L36.4411 69.1415C35.4604 68.1049 36.1423 63.7301 39.3037 47.9986C72.1337 21.5331 89.2544 8.11102 100.766 5.719C97.0898 12.7179 90.9505 18.1353 81.336 26.6195C80.4817 27.3733 79.6 28.1514 78.6903 28.9568C87.9811 25.8792 99.8914 13.4954 104.685 7.6882C108.478 -12.8537 77.5225 10.549 36.7576 45.0492C45.4783 28.8715 44.4015 26.598 42.3291 26.6533C36.6244 25.1961 3.25398 53.5879 0 66.1094C2.16411 72.3256 5.29361 71.5346 8.98014 68.6328ZM24.6851 61.5746L29.1652 56.8463L24.5904 69.1432L24.6851 61.5746Z" fill="#9B1E21"/>
<path fill-rule="evenodd" clip-rule="evenodd" d="M120.528 49.4706C121.6 49.9428 124.84 49.0832 129.226 41.8669C131.072 38.5133 128.346 33.5164 123.917 37.4327C119.488 41.3488 112.506 53.4684 118.049 59.7302C119.64 61.4946 126.377 54.1749 129.546 50.2945C130.591 48.0843 130.706 47.1507 119.93 53.6855C118.196 54.9573 119.674 50.208 120.528 49.4706ZM123.228 45.3794C124.411 44.2521 126.554 41.739 125.663 40.7046C124.814 39.7186 122.902 42.5464 121.929 44.2949C121.757 45.4568 122.723 45.502 123.228 45.3794Z" fill="#9B1E21"/>
<path fill-rule="evenodd" clip-rule="evenodd" d="M50.133 50.2672C43.9749 47.2598 35.8248 70.5573 42.491 73.972C48.9954 74.9088 55.2177 51.9987 50.133 50.2672ZM49.435 53.1605C46.2898 53.5377 41.7259 66.7279 43.3193 70.9071C44.3212 72.8159 51.6291 53.6778 49.435 53.1605Z" fill="#9B1E21"/>
<path d="M89.0042 55.112C91.3854 47.2851 91.1707 44.0857 90.8604 43.7946C91.9197 43.5726 94.163 43.5914 94.6606 45.4414C95.2827 47.7539 90.9862 57.4451 91.5235 60.0807C91.9533 62.1892 96.5487 49.0177 98.6822 43.2274C99.8441 42.6631 100.535 43.1816 101 44.422C99.2101 46.8731 97.182 57.7377 99.123 64.0125C98.8257 64.2783 97.3767 65.0578 96.1896 63.963C95.0023 62.868 95.263 59.7048 95.6342 55.8611C94.7802 58.0756 92.814 62.8638 91.7815 64.3014C90.4907 66.0985 86.0279 64.8956 89.0042 55.112Z" fill="#9B1E21"/>
<path d="M166.279 32C169.046 29.6873 161.245 29.3304 157 29.4409L157.94 27.1119C161.463 26.9025 168.762 26.8421 169.788 28.2753C170.813 29.7086 167.876 31.3556 166.279 32Z" fill="#9B1E21"/>
</g>
<defs>
<clipPath id="clip0_807_5099">
<rect width="170" height="82" fill="white"/>
</clipPath>
</defs>
</svg>
