<svg width="285" height="130" viewBox="0 0 285 130" fill="none" xmlns="http://www.w3.org/2000/svg">
<rect width="285" height="130" rx="5" fill="#F8F8F8"/>
<mask id="mask0_939_6909" style="mask-type:luminance" maskUnits="userSpaceOnUse" x="1" y="27" width="284" height="77">
<path d="M1 27H284.324V104H1V27Z" fill="white"/>
</mask>
<g mask="url(#mask0_939_6909)">
<path fill-rule="evenodd" clip-rule="evenodd" d="M23.1411 34.86C27.9488 32.3144 33.2852 30.9853 38.7012 30.9845C45.872 30.9846 52.8576 33.3101 58.6499 37.6256C64.4422 41.9411 68.7419 48.0233 70.9286 54.995H74.9969C72.7299 46.8352 67.8868 39.6679 61.2197 34.6065C54.5527 29.545 46.4349 26.8727 38.1274 27.0047C29.8199 27.1366 21.7874 30.0654 15.2779 35.3361C8.76825 40.6068 4.14584 47.9243 2.12854 56.1523C0.111237 64.3802 0.811983 73.0578 4.12193 80.8374C7.43188 88.6172 13.1658 95.0632 20.433 99.1744C27.7001 103.286 36.0939 104.832 44.3106 103.574C52.5271 102.315 60.1067 98.3218 65.8717 92.2141H60.0999C55.9066 95.7131 50.951 98.1323 45.6505 99.2682C40.3501 100.404 34.86 100.223 29.6423 98.7407C24.4246 97.2584 19.6322 94.518 15.6686 90.7503C11.7049 86.9824 8.6861 82.2977 6.8662 77.0904C5.04633 71.8831 4.47868 66.3057 5.21109 60.8275C5.9435 55.3495 7.9545 50.1313 11.0748 45.6123C14.1951 41.0932 18.3332 37.4056 23.1411 34.86ZM45.7581 94.6013C47.2181 94.6013 49.0431 92.7887 49.0431 91.2245V68.7122C49.0504 67.1148 48.5619 65.5565 47.6477 64.2601C47.1018 63.5634 46.121 62.9887 45.3099 62.5134L45.3063 62.5113C45.2148 62.4577 45.1257 62.4054 45.0394 62.3544C44.8675 62.2548 44.6647 62.1474 44.453 62.0351C43.6913 61.6315 42.8114 61.1654 42.8114 60.7707C42.8114 60.5252 43.3511 60.2136 43.9902 59.8449C44.6647 59.4556 45.4497 59.0025 45.8264 58.4962C46.5603 57.5104 47.1763 55.9499 47.0166 54.7545C46.8105 53.3642 46.0605 52.1219 45.2934 50.8519C44.9704 50.3171 44.6446 49.7773 44.3551 49.2196C43.6592 47.9115 43.2752 45.9358 43.0509 44.4221C42.9527 43.7722 42.909 43.1155 42.8656 42.4631C42.7694 41.0195 42.6748 39.5972 41.9939 38.3166C41.6589 37.7311 41.1795 37.2454 40.6034 36.9079C40.0275 36.5704 39.3749 36.3928 38.7107 36.3928C38.0464 36.3928 37.394 36.5704 36.8179 36.9079C36.2418 37.2454 35.7624 37.7311 35.4275 38.3166C34.7396 39.6008 34.6491 41.0245 34.5568 42.4742C34.515 43.132 34.4728 43.7953 34.3742 44.4532C34.1499 45.9669 33.7697 47.9465 33.0701 49.2507C32.7777 49.8205 32.4461 50.3715 32.1172 50.9177C31.3599 52.1757 30.618 53.408 30.4085 54.7855C30.2527 55.981 30.9256 57.5646 31.6025 58.5272C31.9516 59.0238 32.7417 59.479 33.4251 59.8726C34.0666 60.2421 34.6137 60.5574 34.6137 60.8018C34.6137 61.1954 33.739 61.6599 32.9806 62.0627C32.767 62.1761 32.5625 62.2848 32.3895 62.3854C32.3019 62.437 32.2114 62.4898 32.1186 62.5441C31.3051 63.0187 30.3232 63.5912 29.7774 64.2911C28.8683 65.59 28.3802 67.1468 28.382 68.7432V91.2556C28.382 92.808 30.2032 94.6324 31.6671 94.6324L45.7581 94.6013ZM44.2257 91.4534H33.2107C32.4009 91.4534 31.3096 91.271 31.3096 90.0096V69.6825C31.3096 67.6137 32.1614 65.0247 34.4122 64.2484C35.3134 63.9262 37.6973 62.5019 37.6973 61.353C37.6973 60.224 36.6239 59.1992 35.5942 58.2161C35.4309 58.0601 35.2686 57.9051 35.1118 57.7509C34.5491 57.2231 33.6252 55.7054 33.7166 54.6963C33.858 53.3934 34.5686 52.1973 35.2805 50.999C35.8115 50.1053 36.3432 49.2104 36.6404 48.2685C36.9273 47.3727 37.0136 46.2421 37.0972 45.1475C37.1444 44.5299 37.1906 43.924 37.2715 43.378C37.2945 43.2215 37.3174 43.0408 37.3423 42.8448C37.5114 41.5139 37.7706 39.4733 38.7316 39.4733C39.6945 39.4733 39.9557 41.5213 40.1255 42.8521C40.1501 43.0453 40.1728 43.2234 40.1954 43.378C40.2767 43.9256 40.3224 44.5341 40.3691 45.1541C40.4515 46.2477 40.5365 47.3769 40.8229 48.2685C41.1223 49.2125 41.6533 50.1093 42.1833 51.005C42.8915 52.2013 43.5982 53.3954 43.7505 54.6963C43.8379 55.7054 42.9178 57.2231 42.3551 57.7509C42.1935 57.9104 42.0258 58.0707 41.857 58.2319C40.8332 59.2101 39.7658 60.2303 39.7658 61.353C39.7658 62.5174 42.1498 63.9262 43.0509 64.2484C45.3018 65.0247 46.1573 67.5787 46.1573 69.6825V90.0018C46.1383 91.2942 45.0356 91.4534 44.2257 91.4534ZM38.7163 76.9058C39.7086 76.9058 40.8532 76.5176 41.4387 75.8034C42.1992 74.8601 42.4082 73.5755 42.4958 72.3566C42.4939 71.4358 42.3183 70.5237 41.9786 69.6708C41.807 69.235 41.5116 68.8001 41.2183 68.3685C40.9393 67.9582 40.6625 67.5506 40.4958 67.1477C39.766 65.4459 39.1709 63.6872 38.7163 61.8884C38.2647 63.6876 37.6709 65.4466 36.9407 67.1477C36.7737 67.5558 36.4938 67.9683 36.212 68.3839C35.9226 68.8105 35.6312 69.2401 35.4578 69.6708C35.1186 70.5241 34.9419 71.4356 34.9369 72.3566C35.0282 73.5755 35.2297 74.8601 35.994 75.8034C36.5795 76.5136 37.7277 76.9058 38.7163 76.9058ZM78.9549 77.748L84.6582 79.5955C83.7838 82.8455 82.3288 85.2572 80.2933 86.8305C78.2579 88.4038 75.6762 89.1929 72.5482 89.1982C68.6776 89.1982 65.4951 87.8475 63.001 85.1459C60.5067 82.4444 59.2609 78.7533 59.2634 74.0722C59.2634 69.1194 60.5169 65.2729 63.0238 62.5327C65.5307 59.7924 68.826 58.421 72.9094 58.4184C76.476 58.4184 79.3731 59.4949 81.6014 61.6477C82.9245 62.9208 83.918 64.7478 84.5821 67.1283L78.7573 68.5488C78.4865 67.1046 77.7179 65.807 76.5907 64.8914C75.4636 63.9757 74.0524 63.5025 72.6129 63.5573C71.6174 63.5248 70.6274 63.7213 69.7164 64.1324C68.8054 64.5437 67.9968 65.159 67.3507 65.9329C66.0047 67.5165 65.3317 70.0807 65.3317 73.6259C65.3317 77.3857 65.9945 80.0652 67.3202 81.6643C67.9467 82.439 68.7383 83.0574 69.6344 83.4725C70.5304 83.8874 71.5076 84.0881 72.4913 84.0591C73.9771 84.091 75.4199 83.5474 76.5291 82.5376C77.6545 81.5232 78.4632 79.9267 78.9549 77.748ZM112.989 58.9269H89.7952V88.7014H95.6886V63.9222H107.095V88.7014H112.989V58.9269ZM134.806 58.236H138.608C138.489 59.9541 138.048 61.257 137.285 62.1447C136.522 63.0322 134.638 63.4747 131.634 63.4721C131.277 63.4721 130.92 63.4721 130.562 63.4527H129.863C128.394 63.4065 126.928 63.6085 125.524 64.0504C124.376 64.4792 123.409 65.3025 122.791 66.3793C122.083 67.5282 121.716 69.3823 121.688 71.9414C122.404 70.4753 123.509 69.2444 124.878 68.3898C126.775 67.3369 128.967 66.9733 131.093 67.3582C133.219 67.7433 135.154 68.8543 136.581 70.5091C138.46 72.5895 139.492 75.3222 139.467 78.1517C139.487 79.5865 139.229 81.0112 138.707 82.3436C138.185 83.6761 137.409 84.8896 136.425 85.9146C134.397 88.0805 131.756 89.1619 128.502 89.1594C126.419 89.2114 124.366 88.648 122.589 87.537C120.926 86.4839 119.647 84.9039 118.947 83.0384C118.219 81.1365 117.855 77.9874 117.855 73.591C117.855 68.4157 118.787 64.7 120.65 62.4435C122.513 60.1871 125.764 59.0577 130.403 59.0549H133.228C134.006 59.0524 134.532 58.7794 134.806 58.236ZM123.551 78.0702C123.551 80.0342 124.031 81.5868 124.992 82.7279C125.415 83.2677 125.952 83.7025 126.563 83.9997C127.174 84.2969 127.844 84.4485 128.521 84.4435C129.228 84.4596 129.93 84.3073 130.57 83.9988C131.21 83.6902 131.771 83.2339 132.209 82.6658C133.172 81.4807 133.653 79.9552 133.653 78.0896C133.653 76.1798 133.166 74.6403 132.19 73.4707C131.759 72.9245 131.215 72.4834 130.596 72.1793C129.977 71.8753 129.3 71.7159 128.613 71.713C127.927 71.71 127.248 71.8636 126.627 72.1622C126.006 72.4609 125.458 72.8972 125.023 73.4396C124.037 74.5912 123.543 76.1346 123.543 78.0702H123.551ZM144.163 58.9269V88.7014H150.052V75.6752H161.584V88.7014H167.47V58.9269H161.584V70.641H150.052V58.9269H144.163ZM173.638 58.9269H179.147V78.7415L190.956 58.9463H196.824V88.7014H191.318V69.2592L179.531 88.6897H173.638V58.9269ZM208.419 58.9269H202.91V88.7014H208.796L220.591 69.2592V88.7014H226.1V58.9463H220.233L208.419 78.7415V58.9269ZM232.142 58.9267H243.777C245.503 58.8911 247.229 58.9896 248.94 59.2216C250.028 59.4015 251.067 59.82 251.982 60.4482C252.898 61.0977 253.662 61.9476 254.217 62.9362C254.822 63.9957 255.132 65.2035 255.115 66.4295C255.116 67.7949 254.729 69.1315 254.003 70.2773C253.276 71.4229 252.238 72.3286 251.015 72.8844C252.636 73.3101 254.076 74.264 255.115 75.6014C256.073 76.8895 256.578 78.4709 256.545 80.0883C256.54 81.4595 256.224 82.8109 255.621 84.0357C255.049 85.2609 254.179 86.3164 253.096 87.102C251.919 87.9065 250.561 88.3927 249.15 88.515C248.169 88.6236 245.8 88.6908 242.046 88.7167H232.142V58.9267ZM238.032 63.8794V70.7651H241.886C244.168 70.7651 245.594 70.7301 246.165 70.6603C247.053 70.5932 247.89 70.2179 248.541 69.5968C248.832 69.2887 249.058 68.9235 249.208 68.523C249.355 68.1227 249.423 67.6955 249.404 67.2679C249.436 66.4491 249.164 65.6481 248.643 65.0244C248.059 64.406 247.268 64.0336 246.427 63.9803C245.846 63.9105 244.164 63.8755 241.396 63.8755L238.032 63.8794ZM238.032 75.7177V83.6748H243.48C244.827 83.7176 246.176 83.6567 247.515 83.4924C248.34 83.358 249.096 82.9388 249.654 82.3046C250.231 81.5978 250.525 80.6959 250.479 79.7778C250.504 78.9702 250.281 78.1751 249.841 77.5033C249.39 76.8591 248.746 76.3823 248.005 76.1447C247.2 75.8575 245.46 75.7152 242.784 75.7177H238.032ZM284.324 79.5955L278.619 77.748C278.127 79.9267 277.318 81.5232 276.189 82.5376C275.08 83.5467 273.638 84.0902 272.151 84.0591C271.169 84.0881 270.191 83.8874 269.295 83.4725C268.4 83.0574 267.607 82.439 266.982 81.6643C265.655 80.0652 264.993 77.3857 264.993 73.6259C264.993 70.0807 265.666 67.5165 267.012 65.9329C267.658 65.1593 268.466 64.5442 269.376 64.1329C270.286 63.7218 271.274 63.5251 272.269 63.5573C273.711 63.5015 275.122 63.9742 276.251 64.8901C277.378 65.8058 278.148 67.1039 278.418 68.5488L284.243 67.1283C283.578 64.7478 282.585 62.9208 281.262 61.6477C279.034 59.4949 276.138 58.4184 272.571 58.4184C268.484 58.421 265.188 59.7924 262.684 62.5327C260.18 65.2729 258.928 69.1194 258.928 74.0722C258.926 78.7533 260.171 82.4444 262.666 85.1459C265.16 87.8475 268.343 89.1982 272.213 89.1982C275.341 89.1929 277.923 88.4038 279.959 86.8305C281.994 85.2572 283.448 82.8455 284.324 79.5955Z" fill="#D3D3D3"/>
</g>
</svg>
