<svg width="285" height="130" viewBox="0 0 285 130" fill="none" xmlns="http://www.w3.org/2000/svg">
<rect width="285" height="130" rx="5" fill="#F8F8F8"/>
<g clip-path="url(#clip0_939_6899)">
<path d="M46.9412 76.0445C46.9412 68.7253 42.9924 64.9999 38.2008 62.7428C28.0184 57.8341 13.0442 60.0913 13.0442 51.3696C13.0442 47.206 16.4161 44.4668 23.1378 44.4668C32.8987 44.4668 33.653 50.0329 33.9858 53.1885H45.9208C44.989 39.2294 34.4738 35 22.6942 35C11.3582 35 1.02046 40.7414 1.02046 52.2023C1.02046 57.8562 3.21667 61.7567 5.98966 64.1672C15.3291 72.3193 35.2724 67.8269 35.2724 77.3813C35.2724 83.9335 28.3732 85.2703 23.4041 85.2703C16.1721 85.2703 12.0459 82.1147 12.0459 75.7159H0C0.33276 88.7546 9.76093 95 22.8716 95C37.513 95 46.9412 88.8422 46.9412 76.0445Z" fill="#D3D3D3"/>
<path d="M278.299 72.5367V36.6665H263.154L239.735 72.04V81.542H267.299V93.3332H278.299V81.542H285V72.5367H278.299ZM267.299 72.5367H249.753L267.299 46.2549V72.5367Z" fill="#D3D3D3"/>
<path d="M219.459 35C204.51 35 197.67 43.4582 197.826 55.8068H209.145C208.631 46.8459 213.957 44.704 219.193 44.704C224.428 44.704 228.327 48.0917 228.327 52.8999C228.327 56.5499 227.48 59.8719 221.576 64.6802L198.851 82.8207V93.3333H239.49V83.6294H213.467L229.44 71.0403C235.769 65.9917 239.735 60.9428 239.735 52.7251C239.735 42.3873 231.624 35 219.459 35Z" fill="#D3D3D3"/>
<path d="M194.47 59.5077V48.3335H191.24C185.926 48.3335 181.802 50.8888 179.804 54.9817V48.3335H169.323V93.3335H180.207V69.3608C180.207 62.2146 184.395 59.5077 191.41 59.5077H194.47Z" fill="#D3D3D3"/>
<path d="M107.294 36.6665H95.5586V93.3332H107.294V36.6665Z" fill="#D3D3D3"/>
<path d="M120.706 36.6665H108.971V93.3332H120.706V36.6665Z" fill="#D3D3D3"/>
<path d="M92.2054 71.8311C92.2054 58.3851 84.8852 48.3335 70.9992 48.3335C58.3774 48.3335 48.6172 56.4799 48.6172 71.9186C48.6172 87.3574 58.1334 95.0002 70.9992 95.0002C83.1995 95.0002 90.0982 88.5181 91.5179 79.4739L79.983 79.2328C79.0514 83.4593 75.369 85.7149 70.8218 85.7149C62.5033 85.7149 60.3961 79.4081 60.3961 74.2618H92.1834V71.8311H92.2054ZM60.8396 66.1812C61.4386 60.7721 65.6311 57.5529 70.9326 57.5529C75.5687 57.5529 79.85 59.9618 80.1827 66.1812H60.8396Z" fill="#D3D3D3"/>
<path d="M167.647 71.8311C167.647 58.3851 160.326 48.3335 146.44 48.3335C133.819 48.3335 124.059 56.48 124.059 71.9187C124.059 87.3574 133.553 95.0002 146.44 95.0002C158.64 95.0002 165.539 88.5179 166.958 79.4737L155.424 79.2329C154.492 83.4593 150.81 85.7149 146.263 85.7149C137.945 85.7149 135.837 79.408 135.837 74.2618H167.623V71.8311H167.647ZM136.281 66.1812C136.88 60.7721 141.072 57.553 146.374 57.553C151.01 57.553 155.291 59.9618 155.624 66.1812H136.281Z" fill="#D3D3D3"/>
</g>
<defs>
<clipPath id="clip0_939_6899">
<rect width="285" height="60" fill="white" transform="translate(0 35)"/>
</clipPath>
</defs>
</svg>
