<svg width="170" height="36" viewBox="0 0 170 36" fill="none" xmlns="http://www.w3.org/2000/svg">
<g clip-path="url(#clip0_807_5048)">
<path d="M28 24.6267C28 20.2352 25.6446 18 22.7864 16.6457C16.7127 13.7005 7.78072 15.0548 7.78072 9.82176C7.78072 7.32359 9.79206 5.68005 13.8015 5.68005C19.6238 5.68005 20.0737 9.01972 20.2722 10.9131H27.3914C26.8356 2.53762 20.5633 0 13.5369 0C6.77505 0 0.608696 3.44485 0.608696 10.3214C0.608696 13.7137 1.91871 16.054 3.57278 17.5003C9.14368 22.3916 21.0397 19.6961 21.0397 25.4288C21.0397 29.3601 16.9244 30.1622 13.9603 30.1622C9.64651 30.1622 7.18526 28.2688 7.18526 24.4295H0C0.198488 32.2527 5.82231 36 13.6427 36C22.3762 36 28 32.3053 28 24.6267Z" fill="#0158FF"/>
<path d="M166.003 22.5221V1H156.969L143 22.2241V27.9253H159.441V35H166.003V27.9253H170V22.5221H166.003ZM159.441 22.5221H148.975L159.441 6.75305V22.5221Z" fill="#0158FF"/>
<path d="M130.906 0C121.989 0 117.908 5.07493 118.002 12.4841H124.753C124.447 7.10752 127.624 5.8224 130.747 5.8224C133.87 5.8224 136.195 7.85499 136.195 10.7399C136.195 12.9299 135.69 14.9232 132.168 17.8081L118.613 28.6924V35H142.854V29.1776H127.331L136.859 21.6242C140.634 18.595 143 15.5657 143 10.6351C143 4.43237 138.162 0 130.906 0Z" fill="#0158FF"/>
<path d="M116 14.7045V8H114.073C110.904 8 108.444 9.5332 107.251 11.9889V8H101V35H107.492V20.6164C107.492 16.3286 109.99 14.7045 114.174 14.7045H116Z" fill="#0158FF"/>
<path d="M64 1H57V35H64V1Z" fill="#0158FF"/>
<path d="M72 1H65V35H72V1Z" fill="#0158FF"/>
<path d="M55 22.0985C55 14.0309 50.6336 8 42.3507 8C34.8219 8 29 12.8878 29 22.1511C29 31.4143 34.6763 36 42.3507 36C49.628 36 53.743 32.1108 54.5899 26.6842L47.7094 26.5396C47.1538 29.0755 44.9572 30.4288 42.2448 30.4288C37.283 30.4288 36.026 26.6448 36.026 23.557H54.9868V22.0985H55ZM36.2906 18.7086C36.6479 15.4632 39.1486 13.5317 42.3109 13.5317C45.0764 13.5317 47.6301 14.977 47.8286 18.7086H36.2906Z" fill="#0158FF"/>
<path d="M100 22.0986C100 14.031 95.6332 8 87.3505 8C79.8218 8 74 12.8879 74 22.1511C74 31.4143 79.6631 36 87.3505 36C94.6277 36 98.7427 32.1107 99.5893 26.6841L92.7091 26.5396C92.1534 29.0755 89.957 30.4289 87.2446 30.4289C82.2828 30.4289 81.0259 26.6447 81.0259 23.557H99.986V22.0986H100ZM81.2905 18.7086C81.6477 15.4632 84.1485 13.5317 87.3107 13.5317C90.0761 13.5317 92.6298 14.977 92.8283 18.7086H81.2905Z" fill="#0158FF"/>
</g>
<defs>
<clipPath id="clip0_807_5048">
<rect width="170" height="36" fill="white"/>
</clipPath>
</defs>
</svg>
